PathFileType	4	(X/Y/Z)	Patient4_TMGait_0pt6_01_left_19.trc.trc
DataRate	CameraRate	NumFrames	NumMarkers	Units	OrigDataRate	OrigDataStartFrame	OrigNumFrames
83.333333333333	83.333333333333	4	33	mm	83.333333333333	1	       141
Frame#	Time	Sacral			L.Shoulder			Chest			R.Shoulder			Neck			R.ASIS			L.ASIS			R.Thigh.Superior			R.Thigh.Lateral			R.Thigh.Inferior			R.Patella			L.Thigh.Superior			L.Thigh.Lateral			L.Thigh.Inferior			L.Patella			L.Shank.Superior			L.Shank.Lateral			L.Shank.Inferior			R.Shank.Superior			R.Shank.Lateral			R.Shank.Inferior			R.Heel			R.Midfoot.Superior			R.Midfoot.Lateral			R.Toe			L.Heel			L.Midfoot.Lateral			L.Midfoot.Superior			L.Toe			L.Elbow			L.Wrist			R.Elbow			R.Wrist			
		X1	Y1	Z1	X2	Y2	Z2	X3	Y3	Z3	X4	Y4	Z4	X5	Y5	Z5	X6	Y6	Z6	X7	Y7	Z7	X8	Y8	Z8	X9	Y9	Z9	X10	Y10	Z10	X11	Y11	Z11	X12	Y12	Z12	X13	Y13	Z13	X14	Y14	Z14	X15	Y15	Z15	X16	Y16	Z16	X17	Y17	Z17	X18	Y18	Z18	X19	Y19	Z19	X20	Y20	Z20	X21	Y21	Z21	X22	Y22	Z22	X23	Y23	Z23	X24	Y24	Z24	X25	Y25	Z25	X26	Y26	Z26	X27	Y27	Z27	X28	Y28	Z28	X29	Y29	Z29	X30	Y30	Z30	X31	Y31	Z31	X32	Y32	Z32	X33	Y33	Z33	

1	23.090000000000	702.656216612745	1011.007677946730	523.113451064769	860.082775891521	1441.055559611124	337.558612424774	975.954960301339	1370.614241397165	488.844645924497	904.670904204933	1439.666203791225	669.394785515643	860.317730259292	1500.053088931261	492.038649192944	934.326259441594	946.925176720593	629.644713310595	907.281913153215	964.928112191525	356.690884236723	970.108421310829	743.060335554541	605.612328368627	883.694782772040	635.972057788457	660.306978242102	961.853914564611	582.842607421929	581.686355931386	959.211313592993	495.080095638689	585.535499497171	983.224537513977	773.803943622902	378.744324204581	926.856924848820	650.302999560766	302.913970130643	1031.043202370746	581.563461115957	355.180629882009	1038.388717376033	491.017219596490	346.670199234769	968.601927135281	426.806246351569	344.770293204492	822.954958247977	389.991187218164	304.146998520207	808.387887848696	262.421833457895	361.812543309739	931.304045127854	407.063490146798	589.543549484796	858.036677859154	301.833071416028	645.384149263768	903.446194436160	208.893021268665	581.295276797574	769.809418270108	43.423507104687	542.612567935821	942.659899436393	97.661532390435	579.616965613745	853.230178756902	36.569851144374	616.790149572717	1061.451652622841	43.582295932695	605.903978696738	616.239621804088	202.478621093648	409.713881164802	669.502607123976	156.438574999977	326.636050399770	775.827121622568	163.254609076143	342.814358140337	850.849523366888	50.094222789947	310.987964755323	815.429663767358	1085.192562467760	229.849257155936	889.544848180995	834.034389431931	228.995761422439	933.057569578613	1094.034734035096	797.471644344563	1122.336262329964	914.670937181577	794.105893607421	
2	23.102000000000	702.590264229030	1011.307700369858	523.497062335049	860.060425049615	1441.533201434674	338.414631967758	976.347361349212	1370.628359908753	489.176945961952	905.968814523696	1439.584266187170	670.084267364194	860.995104038108	1500.232357245437	492.944060473009	934.112171107359	946.868769044414	629.642261644497	906.806225084915	965.441404487089	356.667684966643	967.232759123952	742.409083777418	604.605269609760	880.096361135672	636.060133394125	660.176200164773	957.042132647646	582.098603600533	581.266027290687	953.491404965281	494.608561406876	585.222909027259	984.504721640711	776.678220066550	378.959826264886	930.537511665830	652.378253865719	302.679425008088	1035.445452361313	585.387472134335	355.390188411766	1044.848860270960	495.687239023798	346.853501191240	978.117985706756	429.599569263206	344.210099860822	834.786401605533	385.903202713812	303.705521843663	827.323512398323	257.547595781590	360.160083325682	925.328063915060	406.737089465488	589.286884744989	851.592540988953	301.910284755621	645.313491692520	896.496355392318	208.710536936112	581.163208908872	762.218176785874	43.428849112879	542.620067804805	935.065142024067	97.604609524424	579.672954676965	845.587063827020	36.608177442378	616.886034868075	1053.829300472451	43.479151476252	606.013473662038	639.729642754235	187.210431181753	408.376136591695	694.439476830398	145.201462294536	324.432692457916	799.982072382116	157.469513630848	340.181392607563	880.372216069870	49.330709693010	306.488396071672	807.390031324946	1087.061701814057	231.189740015131	870.755990807623	833.875896527510	230.461186849667	943.784949390994	1095.357975753140	797.427321895579	1141.826676657482	927.886069348212	792.526186834184	
3	23.114000000000	702.511577063717	1011.591076528871	523.847684961886	860.036985563223	1441.982873514472	339.247010854748	976.738547964184	1370.607497372124	489.479251002391	907.268239308326	1439.469332315575	670.745784947394	861.671730568678	1500.382673211544	493.822741250586	933.885691893910	946.784549309566	629.585316592448	906.325001394236	965.906132823454	356.608544078257	964.385617882284	741.755678530085	603.569866477085	876.558556205973	636.134148395177	660.034808118191	952.300957117262	581.354832018062	580.843742745851	947.847147816829	494.130085959962	584.911163443628	985.711120015612	779.432883027805	379.166434560907	934.074890292240	654.355266295315	302.469777908391	1039.646540295058	589.061749748277	355.657049056871	1051.086137800438	500.243044843919	347.059788903560	987.428316470024	432.327092462151	343.672024991029	846.521377569674	381.734496537977	303.239215683569	846.183674436372	252.684898384425	358.508278736332	919.426399435352	406.409546743871	589.036163287939	845.228464920141	301.977924042015	645.242416220599	889.620739372515	208.521124044719	581.030325383253	754.707474409904	43.433873799968	542.629154357593	927.552288730228	97.546402972425	579.725095622661	838.028119786957	36.641634207160	616.974094863942	1046.289502729675	43.369918105183	606.118361803754	663.270489203777	171.999329888701	406.988094259078	719.394038872552	134.030943474545	322.204070639239	824.085997620552	151.745829689830	337.567296898631	909.792088145850	48.682973561496	302.049990876060	799.484433525896	1088.918440516208	232.491366966228	852.300109459438	833.817028593351	231.942964008692	954.315837310553	1096.662611329709	797.345519358601	1160.907660338313	941.050106794319	790.903590717111	
4	23.126000000000	702.412386485707	1011.843701203247	524.125451131010	860.018892483802	1442.380330171366	340.022262921839	977.132977794366	1370.518462070446	489.711960580222	908.575560954731	1439.288758513353	671.341188882116	862.352843983044	1500.476415338961	494.641186319010	933.644448452601	946.648789295168	629.426203187879	905.836013443251	966.276391410821	356.468912204871	961.584472963671	741.090915557985	602.495906264940	873.100012214674	636.183729651796	659.869098386205	947.654823967608	580.606486999556	580.417771624996	942.303475917609	493.638360930901	584.598755151809	986.749419084312	781.938885252303	379.347747140933	937.314639502596	656.132939876971	302.279792032145	1043.432134417086	592.428721869990	356.016329801324	1056.866710116791	504.577993318749	347.310662951147	996.343552857047	434.944807364059	343.180174449313	858.147809921979	377.418214048736	302.710727507196	864.991245180742	247.899816821619	356.867644897081	913.616809460100	406.081882644701	588.792063925840	838.965759467976	302.032464772872	645.167675919792	882.836307165425	208.322237869854	580.895153449142	747.296823539611	43.441415001426	542.641502811515	920.142062959997	97.486115695149	579.770310854194	830.577025685207	36.668658393807	617.049787743546	1038.854283022188	43.248552715228	606.215863144924	687.067540369063	156.950892195963	405.489604344659	744.572636536460	123.038478811973	319.948606683124	848.240183007398	146.206227556811	335.021698940359	939.170263283007	48.360901957250	297.838336705262	791.815861874632	1090.766738351829	233.720156502671	834.438625879630	833.965665768927	233.456669105037	964.500068031702	1097.940957163133	797.167507081650	1179.219356137194	954.197231806191	789.163990534498	
